<svg width="41" height="13" viewBox="0 0 41 13" fill="none" xmlns="http://www.w3.org/2000/svg">
<g clip-path="url(#clip0_3_10)">
<path d="M1.40337 12L6.22723 2.45456V2.37501H0.60791V0.36365H8.77269V2.40342L3.94314 12H1.40337ZM14.4943 12.1591C13.6458 12.1591 12.8902 12.0133 12.2273 11.7216C11.5682 11.4261 11.0473 11.0208 10.6648 10.5057C10.286 9.98675 10.0909 9.38827 10.0795 8.71024H12.5568C12.572 8.99433 12.6648 9.24433 12.8352 9.46024C13.0095 9.67236 13.2405 9.83713 13.5284 9.95456C13.8163 10.072 14.1402 10.1307 14.5 10.1307C14.875 10.1307 15.2064 10.0644 15.4943 9.93183C15.7822 9.79925 16.0076 9.61554 16.1705 9.38069C16.3333 9.14584 16.4148 8.87501 16.4148 8.56819C16.4148 8.25759 16.3277 7.98296 16.1534 7.74433C15.983 7.5019 15.7367 7.31251 15.4148 7.17615C15.0966 7.03978 14.7178 6.9716 14.2784 6.9716H13.1932V5.16478H14.2784C14.6496 5.16478 14.9773 5.10039 15.2614 4.9716C15.5492 4.84281 15.7727 4.66478 15.9318 4.43751C16.0909 4.20645 16.1705 3.93751 16.1705 3.63069C16.1705 3.33903 16.1004 3.08334 15.9602 2.86365C15.8239 2.64016 15.6307 2.46592 15.3807 2.34092C15.1345 2.21592 14.8466 2.15342 14.517 2.15342C14.1837 2.15342 13.8788 2.21403 13.6023 2.33524C13.3258 2.45266 13.1042 2.62122 12.9375 2.84092C12.7708 3.06062 12.6818 3.31819 12.6705 3.61365H10.3125C10.3239 2.94319 10.5152 2.35228 10.8864 1.84092C11.2576 1.32956 11.7576 0.929938 12.3864 0.642059C13.0189 0.350392 13.733 0.204559 14.5284 0.204559C15.3314 0.204559 16.0341 0.350392 16.6364 0.642059C17.2386 0.933726 17.7064 1.32766 18.0398 1.82387C18.3769 2.3163 18.5436 2.86933 18.5398 3.48296C18.5436 4.13448 18.3409 4.67804 17.9318 5.11365C17.5265 5.54925 16.9981 5.82577 16.3466 5.94319V6.0341C17.2027 6.14395 17.8542 6.4413 18.3011 6.92615C18.7519 7.40721 18.9754 8.00948 18.9716 8.73296C18.9754 9.39584 18.7841 9.98486 18.3977 10.5C18.0152 11.0152 17.4867 11.4205 16.8125 11.7159C16.1383 12.0114 15.3655 12.1591 14.4943 12.1591ZM24.9901 12.1591C24.187 12.1591 23.4711 12.0114 22.8423 11.7159C22.2173 11.4205 21.7211 11.0133 21.3537 10.4943C20.9863 9.97539 20.795 9.38069 20.7798 8.71024H23.1662C23.1927 9.16099 23.3821 9.52653 23.7344 9.80683C24.0866 10.0871 24.5052 10.2273 24.9901 10.2273C25.3764 10.2273 25.7173 10.142 26.0128 9.9716C26.312 9.79736 26.545 9.55683 26.7116 9.25001C26.8821 8.9394 26.9673 8.58334 26.9673 8.18183C26.9673 7.77274 26.8802 7.41289 26.706 7.10228C26.5355 6.79168 26.2988 6.54925 25.9957 6.37501C25.6927 6.20077 25.3461 6.11175 24.956 6.10796C24.6151 6.10796 24.2836 6.17804 23.9616 6.31819C23.6435 6.45834 23.3954 6.64963 23.2173 6.89206L21.0298 6.50001L21.581 0.36365H28.6946V2.37501H23.6094L23.3082 5.28978H23.3764C23.581 5.0019 23.8897 4.76327 24.3026 4.57387C24.7154 4.38448 25.1776 4.28978 25.6889 4.28978C26.3897 4.28978 27.0147 4.45456 27.5639 4.7841C28.1132 5.11365 28.5469 5.5663 28.8651 6.14206C29.1832 6.71403 29.3404 7.37312 29.3366 8.11933C29.3404 8.90342 29.1586 9.60039 28.7912 10.2102C28.4276 10.8163 27.9181 11.2936 27.2628 11.642C26.6113 11.9867 25.8537 12.1591 24.9901 12.1591ZM35.6151 12.2557C34.6378 12.2519 33.7969 12.0114 33.0923 11.5341C32.3916 11.0568 31.8518 10.3655 31.473 9.46024C31.098 8.55493 30.9124 7.46592 30.9162 6.19319C30.9162 4.92425 31.1037 3.84281 31.4787 2.94887C31.8575 2.05493 32.3973 1.37501 33.098 0.909105C33.8026 0.439408 34.6416 0.204559 35.6151 0.204559C36.5885 0.204559 37.4257 0.439408 38.1264 0.909105C38.831 1.3788 39.3726 2.06062 39.7514 2.95456C40.1302 3.84471 40.3177 4.92425 40.3139 6.19319C40.3139 7.46971 40.1245 8.56062 39.7457 9.46592C39.3707 10.3712 38.8329 11.0625 38.1321 11.5398C37.4313 12.017 36.5923 12.2557 35.6151 12.2557ZM35.6151 10.2159C36.2817 10.2159 36.8139 9.88069 37.2116 9.21024C37.6094 8.53978 37.8063 7.5341 37.8026 6.19319C37.8026 5.31062 37.7116 4.57577 37.5298 3.98865C37.3518 3.40152 37.098 2.96024 36.7685 2.66478C36.4427 2.36933 36.0582 2.2216 35.6151 2.2216C34.9522 2.2216 34.4219 2.55304 34.0241 3.21592C33.6264 3.8788 33.4257 4.87122 33.4219 6.19319C33.4219 7.08713 33.5109 7.83334 33.6889 8.43183C33.8707 9.02653 34.1264 9.47349 34.456 9.77274C34.7855 10.0682 35.1719 10.2159 35.6151 10.2159Z" fill="#333333"/>
</g>
<defs>
<clipPath id="clip0_3_10">
<rect width="41" height="13" fill="white"/>
</clipPath>
</defs>
</svg>
